<svg xmlns="http://www.w3.org/2000/svg" width="24" height="24"
     viewBox="0 0 24 24" fill="#111827" aria-hidden="true">
  <path d="M12 .5C5.73.5.5 5.73.5 12c0 5.08 3.29 9.39 7.86 10.9.58.11.79-.25.79-.56 0-.28-.01-1.02-.02-2-3.2.7-3.88-1.54-3.88-1.54-.53-1.36-1.3-1.73-1.3-1.73-1.06-.73.08-.72.08-.72 1.17.08 1.78 1.2 1.78 1.2 1.04 1.78 2.73 1.27 3.4.97.11-.75.41-1.27.75-1.56-2.56-.29-5.26-1.28-5.26-5.68 0-1.25.45-2.27 1.2-3.07-.12-.29-.52-1.45.12-3.02 0 0 .98-.31 3.2 1.17a11.14 11.14 0 0 1 5.82 0c2.22-1.48 3.2-1.17 3.2-1.17.64 1.57.24 2.73.12 3.02.75.8 1.2 1.82 1.2 3.07 0 4.41-2.7 5.39-5.28 5.67.42.36.8 1.07.8 2.16 0 1.56-.01 2.82-.01 3.2 0 .31.21.68.8.56A10.51 10.51 0 0 0 23.5 12C23.5 5.73 18.27.5 12 .5z"/>
</svg>
